<svg xmlns="http://www.w3.org/2000/svg" xmlns:xlink="http://www.w3.org/1999/xlink" width="1920" zoomAndPan="magnify" viewBox="0 0 1440 809.999993" height="1080" preserveAspectRatio="xMidYMid meet" version="1.0"><defs><g/><clipPath id="b9ea2fd750"><path d="M 130 215 L 458 215 L 458 545 L 130 545 Z M 130 215 " clip-rule="nonzero"/></clipPath><clipPath id="d26a0b6dd5"><path d="M 75.847656 363.898438 L 296.609375 166.1875 L 458.316406 346.746094 L 237.554688 544.457031 Z M 75.847656 363.898438 " clip-rule="nonzero"/></clipPath><clipPath id="6798524961"><path d="M 130.957031 314.542969 L 241.171875 215.835938 L 457.988281 347.039062 L 237.554688 544.457031 Z M 130.957031 314.542969 " clip-rule="nonzero"/></clipPath><clipPath id="74ce6d197f"><path d="M 120 215 L 366 215 L 366 427 L 120 427 Z M 120 215 " clip-rule="nonzero"/></clipPath><clipPath id="9cb35bda2e"><path d="M 425.796875 321.546875 L 304.917969 532.554688 L 120.558594 426.941406 L 241.433594 215.933594 Z M 425.796875 321.546875 " clip-rule="nonzero"/></clipPath><clipPath id="466a367859"><path d="M 365.445312 426.894531 L 120.734375 426.632812 L 241.433594 215.933594 Z M 365.445312 426.894531 " clip-rule="nonzero"/></clipPath><clipPath id="680a2843c1"><path d="M 18.980469 215.933594 L 241.769531 215.933594 L 241.769531 426.867188 L 18.980469 426.867188 Z M 18.980469 215.933594 " clip-rule="nonzero"/></clipPath><clipPath id="84d6974277"><path d="M 18 215 L 242 215 L 242 475 L 18 475 Z M 18 215 " clip-rule="nonzero"/></clipPath><clipPath id="80bc933c6e"><path d="M 130.152344 151.230469 L 354.207031 279.882812 L 242.183594 474.980469 L 18.128906 346.328125 Z M 130.152344 151.230469 " clip-rule="nonzero"/></clipPath><clipPath id="dfa26962d3"><path d="M 241.957031 215.429688 L 241.738281 474.726562 L 18.128906 346.328125 Z M 241.957031 215.429688 " clip-rule="nonzero"/></clipPath></defs><g fill="#033217" fill-opacity="1"><g transform="translate(457.985023, 419.161881)"><g><path d="M 10.070312 0 L 10.070312 -96.449219 L 39.714844 -96.449219 C 49.644531 -96.449219 58.414062 -94.417969 66.027344 -90.351562 C 73.636719 -86.285156 79.617188 -80.636719 83.96875 -73.402344 C 88.320312 -66.167969 90.492188 -57.777344 90.492188 -48.226562 C 90.492188 -38.769531 88.34375 -30.402344 84.039062 -23.121094 C 79.738281 -15.839844 73.757812 -10.164062 66.097656 -6.097656 C 58.4375 -2.03125 49.644531 0 39.714844 0 Z M 29.929688 -17.445312 L 38.722656 -17.445312 C 45.910156 -17.445312 51.792969 -18.769531 56.382812 -21.417969 C 60.96875 -24.066406 64.371094 -27.707031 66.59375 -32.339844 C 68.816406 -36.972656 69.925781 -42.269531 69.925781 -48.226562 C 69.925781 -54.277344 68.816406 -59.597656 66.59375 -64.183594 C 64.371094 -68.769531 60.96875 -72.386719 56.382812 -75.03125 C 51.792969 -77.679688 45.910156 -79.003906 38.722656 -79.003906 L 29.929688 -79.003906 Z M 29.929688 -17.445312 "/></g></g></g><g fill="#033217" fill-opacity="1"><g transform="translate(545.357652, 419.161881)"><g><path d="M 10.496094 -96.449219 L 30.355469 -96.449219 L 30.355469 0 L 10.496094 0 Z M 10.496094 -96.449219 "/></g></g></g><g fill="#033217" fill-opacity="1"><g transform="translate(576.278309, 419.161881)"><g><path d="M 59.148438 1.277344 C 48.652344 1.277344 39.480469 -0.875 31.628906 -5.175781 C 23.78125 -9.480469 17.683594 -15.367188 13.332031 -22.835938 C 8.984375 -30.304688 6.808594 -38.769531 6.808594 -48.226562 C 6.808594 -57.777344 8.886719 -66.261719 13.050781 -73.683594 C 17.210938 -81.109375 23 -86.949219 30.425781 -91.203125 C 37.847656 -95.457031 46.382812 -97.585938 56.027344 -97.585938 C 71.628906 -97.585938 83.308594 -93.140625 91.0625 -84.253906 L 77.585938 -70.917969 C 75.222656 -73.378906 72.433594 -75.457031 69.21875 -77.160156 C 66.003906 -78.863281 61.605469 -79.714844 56.027344 -79.714844 C 50.257812 -79.714844 45.199219 -78.34375 40.851562 -75.601562 C 36.5 -72.859375 33.144531 -69.121094 30.777344 -64.394531 C 28.414062 -59.667969 27.234375 -54.277344 27.234375 -48.226562 C 27.234375 -42.269531 28.484375 -36.878906 30.992188 -32.054688 C 33.496094 -27.234375 37.136719 -23.425781 41.914062 -20.636719 C 46.6875 -17.847656 52.433594 -16.453125 59.148438 -16.453125 C 62.265625 -16.453125 65.578125 -16.738281 69.074219 -17.304688 C 72.574219 -17.871094 75.554688 -18.769531 78.011719 -20 L 78.011719 -34.183594 L 54.75 -34.183594 L 54.75 -51.628906 L 96.167969 -51.628906 L 96.167969 -9.929688 C 94.371094 -8.414062 91.675781 -6.785156 88.082031 -5.035156 C 84.488281 -3.285156 80.234375 -1.796875 75.316406 -0.566406 C 70.398438 0.660156 65.007812 1.277344 59.148438 1.277344 Z M 59.148438 1.277344 "/></g></g></g><g fill="#033217" fill-opacity="1"><g transform="translate(671.310252, 419.161881)"><g><path d="M 10.496094 -96.449219 L 30.355469 -96.449219 L 30.355469 0 L 10.496094 0 Z M 10.496094 -96.449219 "/></g></g></g><g fill="#033217" fill-opacity="1"><g transform="translate(702.230915, 419.161881)"><g><path d="M 32.054688 0 L 32.054688 -79.003906 L 4.539062 -79.003906 L 4.539062 -96.449219 L 79.429688 -96.449219 L 79.429688 -79.003906 L 51.914062 -79.003906 L 51.914062 0 Z M 32.054688 0 "/></g></g></g><g fill="#033217" fill-opacity="1"><g transform="translate(776.412494, 419.161881)"><g><path d="M 2.980469 0 L 45.386719 -97.300781 L 47.089844 -97.300781 L 91.203125 0 L 70.351562 0 L 65.8125 -10.921875 L 26.664062 -10.921875 L 22.125 0 Z M 33.332031 -27.515625 L 58.722656 -27.515625 L 51.769531 -44.253906 C 50.824219 -46.523438 49.902344 -49.003906 49.003906 -51.699219 C 48.105469 -54.394531 47.375 -56.710938 46.808594 -58.652344 C 46.238281 -60.589844 45.957031 -61.558594 45.957031 -61.558594 C 45.957031 -61.558594 45.671875 -60.589844 45.105469 -58.652344 C 44.539062 -56.710938 43.828125 -54.394531 42.976562 -51.699219 C 42.125 -49.003906 41.226562 -46.523438 40.28125 -44.253906 Z M 33.332031 -27.515625 "/></g></g></g><g fill="#033217" fill-opacity="1"><g transform="translate(860.806508, 419.161881)"><g><path d="M 10.070312 0 L 10.070312 -96.449219 L 29.929688 -96.449219 L 29.929688 -17.445312 L 73.613281 -17.445312 L 73.613281 0 Z M 10.070312 0 "/></g></g></g><g fill="#033217" fill-opacity="1"><g transform="translate(930.591105, 419.161881)"><g/></g></g><g fill="#033217" fill-opacity="1"><g transform="translate(952.150396, 419.161881)"><g><path d="M 10.070312 0 L 10.070312 -96.449219 L 29.929688 -96.449219 L 29.929688 -17.445312 L 73.613281 -17.445312 L 73.613281 0 Z M 10.070312 0 "/></g></g></g><g fill="#033217" fill-opacity="1"><g transform="translate(1021.934993, 419.161881)"><g><path d="M 48.792969 1.277344 C 41.417969 1.277344 34.773438 -0.046875 28.863281 -2.695312 C 22.953125 -5.34375 18.273438 -9.335938 14.820312 -14.679688 C 11.371094 -20.023438 9.644531 -26.761719 9.644531 -34.890625 L 9.644531 -96.449219 L 29.503906 -96.449219 L 29.503906 -36.027344 C 29.503906 -29.03125 31.0625 -24.042969 34.183594 -21.0625 C 37.304688 -18.085938 42.171875 -16.59375 48.792969 -16.59375 C 55.316406 -16.59375 60.117188 -18.085938 63.1875 -21.0625 C 66.261719 -24.042969 67.800781 -29.03125 67.800781 -36.027344 L 67.800781 -96.449219 L 87.65625 -96.449219 L 87.65625 -34.890625 C 87.65625 -26.761719 85.953125 -20.023438 82.550781 -14.679688 C 79.144531 -9.335938 74.511719 -5.34375 68.648438 -2.695312 C 62.789062 -0.046875 56.167969 1.277344 48.792969 1.277344 Z M 48.792969 1.277344 "/></g></g></g><g fill="#033217" fill-opacity="1"><g transform="translate(1109.44948, 419.161881)"><g><path d="M 10.070312 0 L 10.070312 -97.445312 L 11.628906 -97.445312 L 59.148438 -45.246094 L 105.953125 -97.445312 L 107.65625 -97.445312 L 107.65625 0 L 88.507812 0 L 88.507812 -36.167969 C 88.507812 -38.34375 88.578125 -40.753906 88.71875 -43.402344 C 88.863281 -46.050781 88.980469 -48.320312 89.074219 -50.210938 C 89.167969 -52.101562 89.21875 -53.046875 89.21875 -53.046875 C 89.21875 -53.046875 88.671875 -52.269531 87.585938 -50.707031 C 86.5 -49.148438 85.152344 -47.304688 83.542969 -45.175781 C 81.9375 -43.046875 80.375 -41.132812 78.863281 -39.429688 L 59.714844 -18.011719 L 57.871094 -18.011719 L 38.722656 -39.429688 C 37.210938 -41.132812 35.648438 -43.046875 34.042969 -45.175781 C 32.433594 -47.304688 31.085938 -49.148438 30 -50.707031 C 28.910156 -52.269531 28.367188 -53.046875 28.367188 -53.046875 C 28.367188 -53.046875 28.4375 -52.101562 28.582031 -50.210938 C 28.722656 -48.320312 28.839844 -46.050781 28.933594 -43.402344 C 29.03125 -40.753906 29.078125 -38.34375 29.078125 -36.167969 L 29.078125 0 Z M 10.070312 0 "/></g></g></g><g fill="#033217" fill-opacity="1"><g transform="translate(1217.388787, 419.161881)"><g><path d="M 2.980469 0 L 45.386719 -97.300781 L 47.089844 -97.300781 L 91.203125 0 L 70.351562 0 L 65.8125 -10.921875 L 26.664062 -10.921875 L 22.125 0 Z M 33.332031 -27.515625 L 58.722656 -27.515625 L 51.769531 -44.253906 C 50.824219 -46.523438 49.902344 -49.003906 49.003906 -51.699219 C 48.105469 -54.394531 47.375 -56.710938 46.808594 -58.652344 C 46.238281 -60.589844 45.957031 -61.558594 45.957031 -61.558594 C 45.957031 -61.558594 45.671875 -60.589844 45.105469 -58.652344 C 44.539062 -56.710938 43.828125 -54.394531 42.976562 -51.699219 C 42.125 -49.003906 41.226562 -46.523438 40.28125 -44.253906 Z M 33.332031 -27.515625 "/></g></g></g><g fill="#033217" fill-opacity="1"><g transform="translate(1301.782801, 419.161881)"><g><path d="M 10.070312 0 L 10.070312 -96.449219 L 39.714844 -96.449219 C 49.644531 -96.449219 58.414062 -94.417969 66.027344 -90.351562 C 73.636719 -86.285156 79.617188 -80.636719 83.96875 -73.402344 C 88.320312 -66.167969 90.492188 -57.777344 90.492188 -48.226562 C 90.492188 -38.769531 88.34375 -30.402344 84.039062 -23.121094 C 79.738281 -15.839844 73.757812 -10.164062 66.097656 -6.097656 C 58.4375 -2.03125 49.644531 0 39.714844 0 Z M 29.929688 -17.445312 L 38.722656 -17.445312 C 45.910156 -17.445312 51.792969 -18.769531 56.382812 -21.417969 C 60.96875 -24.066406 64.371094 -27.707031 66.59375 -32.339844 C 68.816406 -36.972656 69.925781 -42.269531 69.925781 -48.226562 C 69.925781 -54.277344 68.816406 -59.597656 66.59375 -64.183594 C 64.371094 -68.769531 60.96875 -72.386719 56.382812 -75.03125 C 51.792969 -77.679688 45.910156 -79.003906 38.722656 -79.003906 L 29.929688 -79.003906 Z M 29.929688 -17.445312 "/></g></g></g><g fill="#033217" fill-opacity="1"><g transform="translate(1389.157348, 419.161881)"><g/></g></g><g clip-path="url(#b9ea2fd750)"><g clip-path="url(#d26a0b6dd5)"><g clip-path="url(#6798524961)"><path fill="#0097b2" d="M 75.847656 363.898438 L 296.609375 166.1875 L 458.316406 346.746094 L 237.554688 544.457031 Z M 75.847656 363.898438 " fill-opacity="1" fill-rule="nonzero"/></g></g></g><g clip-path="url(#74ce6d197f)"><g clip-path="url(#9cb35bda2e)"><g clip-path="url(#466a367859)"><path fill="#152238" d="M 425.796875 321.546875 L 304.917969 532.554688 L 120.558594 426.941406 L 241.433594 215.933594 Z M 425.796875 321.546875 " fill-opacity="1" fill-rule="nonzero"/></g></g></g><g clip-path="url(#680a2843c1)"><path fill="#5ce1e6" d="M 18.980469 215.933594 L 241.445312 215.933594 L 241.445312 426.867188 L 18.980469 426.867188 Z M 18.980469 215.933594 " fill-opacity="1" fill-rule="nonzero"/></g><g clip-path="url(#84d6974277)"><g clip-path="url(#80bc933c6e)"><g clip-path="url(#dfa26962d3)"><path fill="#ff0000" d="M 130.152344 151.230469 L 353.445312 279.445312 L 241.421875 474.542969 L 18.128906 346.328125 Z M 130.152344 151.230469 " fill-opacity="1" fill-rule="nonzero"/></g></g></g></svg>