<svg xmlns="http://www.w3.org/2000/svg" xmlns:xlink="http://www.w3.org/1999/xlink" width="1920" zoomAndPan="magnify" viewBox="0 0 1440 809.999993" height="1080" preserveAspectRatio="xMidYMid meet" version="1.0"><defs><clipPath id="f279a4329d"><path d="M 497 23 L 1270 23 L 1270 800 L 497 800 Z M 497 23 " clip-rule="nonzero"/></clipPath><clipPath id="73fe99fa62"><path d="M 367.722656 373.25 L 888.773438 -93.402344 L 1270.441406 332.761719 L 749.390625 799.410156 Z M 367.722656 373.25 " clip-rule="nonzero"/></clipPath><clipPath id="e8b7a28db8"><path d="M 497.789062 256.757812 L 757.929688 23.777344 L 1269.671875 333.453125 L 749.390625 799.410156 Z M 497.789062 256.757812 " clip-rule="nonzero"/></clipPath><clipPath id="e6c0148265"><path d="M 473 24 L 1052 24 L 1052 522 L 473 522 Z M 473 24 " clip-rule="nonzero"/></clipPath><clipPath id="05d4add1bb"><path d="M 1193.683594 273.285156 L 908.386719 771.316406 L 473.246094 522.046875 L 758.546875 24.015625 Z M 1193.683594 273.285156 " clip-rule="nonzero"/></clipPath><clipPath id="8af038a2b1"><path d="M 1051.246094 521.9375 L 473.664062 521.320312 L 758.546875 24.015625 Z M 1051.246094 521.9375 " clip-rule="nonzero"/></clipPath><clipPath id="caf6e623e5"><path d="M 233.496094 24.015625 L 759 24.015625 L 759 521.867188 L 233.496094 521.867188 Z M 233.496094 24.015625 " clip-rule="nonzero"/></clipPath><clipPath id="f4c671e4b1"><path d="M 231 22 L 760 22 L 760 635 L 231 635 Z M 231 22 " clip-rule="nonzero"/></clipPath><clipPath id="e626d3bef3"><path d="M 495.890625 -128.699219 L 1024.722656 174.953125 L 760.316406 635.429688 L 231.484375 331.777344 Z M 495.890625 -128.699219 " clip-rule="nonzero"/></clipPath><clipPath id="c961a61259"><path d="M 759.78125 22.824219 L 759.265625 634.828125 L 231.484375 331.777344 Z M 759.78125 22.824219 " clip-rule="nonzero"/></clipPath></defs><g clip-path="url(#f279a4329d)"><g clip-path="url(#73fe99fa62)"><g clip-path="url(#e8b7a28db8)"><path fill="#0097b2" d="M 367.722656 373.25 L 888.773438 -93.402344 L 1270.441406 332.761719 L 749.390625 799.410156 Z M 367.722656 373.25 " fill-opacity="1" fill-rule="nonzero"/></g></g></g><g clip-path="url(#e6c0148265)"><g clip-path="url(#05d4add1bb)"><g clip-path="url(#8af038a2b1)"><path fill="#152238" d="M 1193.683594 273.285156 L 908.386719 771.316406 L 473.246094 522.046875 L 758.546875 24.015625 Z M 1193.683594 273.285156 " fill-opacity="1" fill-rule="nonzero"/></g></g></g><g clip-path="url(#caf6e623e5)"><path fill="#5ce1e6" d="M 233.496094 24.015625 L 758.574219 24.015625 L 758.574219 521.867188 L 233.496094 521.867188 Z M 233.496094 24.015625 " fill-opacity="1" fill-rule="nonzero"/></g><g clip-path="url(#f4c671e4b1)"><g clip-path="url(#e626d3bef3)"><g clip-path="url(#c961a61259)"><path fill="#ff0000" d="M 495.890625 -128.699219 L 1022.921875 173.917969 L 758.515625 634.398438 L 231.484375 331.777344 Z M 495.890625 -128.699219 " fill-opacity="1" fill-rule="nonzero"/></g></g></g></svg>